<svg width="313" height="41" viewBox="0 0 313 41" fill="none" xmlns="http://www.w3.org/2000/svg">
<g clip-path="url(#clip0_32_380)">
<path d="M15.9755 24.1544C20.5625 20.0814 24.1165 14.7304 22.0325 12.3834C21.3715 11.6394 20.4485 11.2944 19.4575 11.4004C18.6255 11.4914 17.7705 11.9024 16.9085 12.5924C15.5534 11.8904 14.041 11.5477 12.5157 11.597C10.9904 11.6464 9.50327 12.0862 8.19647 12.8744C7.18058 13.4758 6.29424 14.2731 5.58888 15.2198C4.88352 16.1665 4.37318 17.2439 4.08747 18.3894C3.64216 20.1539 3.74897 22.0125 4.39347 23.7144C3.32847 24.9174 2.33947 27.3914 3.57047 28.7774C4.08747 29.3584 4.82747 29.6184 5.71747 29.6184C8.42447 29.6184 12.5255 27.2194 15.9755 24.1544ZM19.6745 13.3874C20.0325 13.3534 20.3065 13.4514 20.5355 13.7104C20.7665 13.9714 20.7045 14.6564 20.2835 15.6394C19.8312 14.9511 19.2872 14.3277 18.6665 13.7864C19.0975 13.5244 19.4425 13.4134 19.6745 13.3874ZM5.44346 25.6904C5.88812 26.3353 6.41527 26.9192 7.01147 27.4274C5.98647 27.7304 5.29747 27.7104 5.06647 27.4484C4.84947 27.2054 5.06846 26.3794 5.44346 25.6904ZM21.7535 19.8214C20.5385 21.6184 18.8475 23.4924 16.9755 25.1544C15.0415 26.8734 12.9095 28.3624 10.9255 29.3564C11.5411 29.4919 12.1691 29.5629 12.7995 29.5684C14.4258 29.5666 16.0212 29.1235 17.4155 28.2864C18.8639 27.4288 20.04 26.1788 20.8077 24.6807C21.5754 23.1827 21.9033 21.498 21.7535 19.8214Z" fill="#8E8371"/>
</g>
<path d="M60.8796 26.395C69.5203 31.2756 76.4341 24.7685 75.57 12.5688C62.6078 11.7555 55.694 18.2626 60.8796 26.395ZM60.8796 26.395L58.6431 28.5M60.8796 26.3973L65.5568 21.9929" stroke="#8E8371" stroke-width="2" stroke-linecap="round" stroke-linejoin="round"/>
<g clip-path="url(#clip1_32_380)">
<path fill-rule="evenodd" clip-rule="evenodd" d="M299.561 19.4306C299.842 19.7119 300 20.0931 300 20.4906C300 20.8881 299.842 21.2694 299.561 21.5506L293.905 27.2086C293.624 27.4899 293.242 27.6479 292.845 27.6478C292.447 27.6477 292.065 27.4895 291.784 27.2081C291.503 26.9267 291.345 26.5451 291.345 26.1473C291.345 25.7494 291.503 25.3679 291.784 25.0866L296.38 20.4906L291.784 15.8946C291.511 15.6119 291.36 15.233 291.363 14.8397C291.366 14.4464 291.524 14.0701 291.802 13.7919C292.08 13.5136 292.456 13.3557 292.849 13.3521C293.242 13.3485 293.621 13.4995 293.904 13.7726L299.562 19.4296L299.561 19.4306Z" fill="#8E8371"/>
</g>
<defs>
<clipPath id="clip0_32_380">
<rect width="25.6432" height="18.2368" fill="white" transform="translate(0 11.3816)"/>
</clipPath>
<clipPath id="clip1_32_380">
<rect width="14.6553" height="14.2957" fill="white" transform="translate(288.345 13.3521)"/>
</clipPath>
</defs>
</svg>
