<svg width="24" height="24" viewBox="0 0 24 24" fill="none" xmlns="http://www.w3.org/2000/svg">
<path d="M2.76012 20.1999C3.03448 20.4903 3.36921 20.7169 3.7407 20.8637C4.11219 21.0106 4.51139 21.0742 4.91012 21.0499C6.07924 20.9887 7.22464 20.6964 8.28012 20.1899C9.86191 20.8988 11.6147 21.1357 13.328 20.8724C15.0412 20.609 16.6419 19.8565 17.9378 18.7054C19.2337 17.5542 20.1696 16.0533 20.633 14.383C21.0964 12.7128 21.0676 10.9442 20.5501 9.28992C21.8601 7.05992 22.3001 5.02992 21.2201 3.80992C20.9062 3.44581 20.5077 3.16424 20.0596 2.9899C19.6116 2.81556 19.1276 2.75376 18.6501 2.80992C17.7037 2.95429 16.8187 3.36731 16.1001 3.99992C14.487 3.18033 12.6643 2.86598 10.8699 3.09788C9.07543 3.32979 7.39254 4.09718 6.04079 5.29994C4.68904 6.50269 3.7312 8.08495 3.29225 9.84027C2.8533 11.5956 2.95362 13.4425 3.58012 15.1399C2.52012 16.3499 1.53012 18.8199 2.76012 20.1999ZM4.26012 18.8799C4.04012 18.6299 4.26012 17.8099 4.63012 17.1199C5.07765 17.7641 5.60521 18.3488 6.20012 18.8599C5.17012 19.1599 4.49012 19.1399 4.26012 18.8799ZM18.7701 13.7099C18.3162 15.5056 17.1691 17.0483 15.5801 17.9999C14.4964 18.6444 13.2609 18.9895 12.0001 18.9999C11.5836 18.9968 11.1683 18.9533 10.7601 18.8699C12.329 17.9078 13.8083 16.8067 15.1801 15.5799C16.5613 14.3603 17.8329 13.0218 18.9801 11.5799C19.0217 12.2965 18.9508 13.0152 18.7701 13.7099ZM18.8601 4.81992C19.0204 4.79353 19.1848 4.80914 19.3373 4.86522C19.4898 4.9213 19.6251 5.01595 19.7301 5.13992C19.9601 5.39992 19.8901 6.07992 19.4701 7.06992C19.0191 6.38064 18.4776 5.75505 17.8601 5.20992C18.161 5.00848 18.5023 4.87536 18.8601 4.81992ZM5.22012 10.3099C5.43941 9.41585 5.83439 8.57434 6.38205 7.83439C6.92971 7.09444 7.61912 6.47085 8.41012 5.99992C9.49444 5.34832 10.7351 5.00274 12.0001 4.99992C13.2116 4.99156 14.4038 5.3023 15.4571 5.9009C16.5103 6.49949 17.3874 7.36484 18.0001 8.40992C18.1325 8.62123 18.2495 8.8418 18.3501 9.06992C17.064 10.9143 15.5561 12.5936 13.8601 14.0699C12.1932 15.603 10.3424 16.9231 8.35012 17.9999C7.08396 17.2221 6.09818 16.0615 5.53547 14.6862C4.97275 13.3109 4.86231 11.7922 5.22012 10.3499V10.3099Z" fill="black"/>
</svg>
