<svg width="30" height="35" viewBox="0 0 30 35" fill="none" xmlns="http://www.w3.org/2000/svg">
<path fill-rule="evenodd" clip-rule="evenodd" d="M11.1015 18.2171C10.8206 17.9359 10.6628 17.5546 10.6628 17.1571C10.6628 16.7596 10.8206 16.3784 11.1015 16.0971L16.7575 10.4391C17.0389 10.1579 17.4205 9.99991 17.8184 10C18.0154 10 18.2104 10.0389 18.3924 10.1143C18.5744 10.1898 18.7398 10.3003 18.879 10.4396C19.0183 10.579 19.1287 10.7444 19.2041 10.9264C19.2794 11.1084 19.3182 11.3035 19.3181 11.5005C19.3181 11.6975 19.2793 11.8925 19.2038 12.0745C19.1284 12.2565 19.0179 12.4219 18.8785 12.5611L14.2825 17.1571L18.8785 21.7531C19.0219 21.8914 19.1362 22.0569 19.2149 22.2399C19.2936 22.4228 19.3351 22.6196 19.3369 22.8188C19.3387 23.018 19.3009 23.2155 19.2255 23.3999C19.1502 23.5843 19.0389 23.7518 18.8981 23.8927C18.7573 24.0336 18.5899 24.1451 18.4056 24.2206C18.2213 24.2961 18.0238 24.3341 17.8246 24.3325C17.6255 24.3309 17.4286 24.2896 17.2456 24.211C17.0625 24.1325 16.897 24.0183 16.7585 23.8751L11.0995 18.2171H11.1015Z" fill="white"/>
</svg>
