<svg width="24" height="24" viewBox="0 0 24 24" fill="none" xmlns="http://www.w3.org/2000/svg">
<path d="M4.88398 20.5506L4.88398 20.5506L4.87977 20.5508C4.55407 20.5707 4.22798 20.5187 3.92453 20.3988C3.62337 20.2797 3.35179 20.0965 3.12863 19.8619C2.67358 19.3467 2.59022 18.5855 2.79752 17.723C3.0038 16.8649 3.47656 16.0169 3.95622 15.4694L4.15215 15.2457L4.04919 14.9668C3.4575 13.3636 3.36275 11.6194 3.77732 9.96157C4.19188 8.30377 5.0965 6.80941 6.37316 5.67348C7.64981 4.53754 9.2392 3.81278 10.934 3.59376C12.6287 3.37474 14.3501 3.67163 15.8736 4.44568L16.176 4.5993L16.4305 4.3752C17.075 3.80778 17.8684 3.43665 18.7169 3.30553C19.1104 3.26062 19.5091 3.31219 19.8783 3.45587C20.2502 3.60056 20.5809 3.83424 20.8414 4.13643L20.8414 4.13646L20.8457 4.14134C21.2583 4.60736 21.4114 5.25435 21.2867 6.09806C21.161 6.94882 20.7569 7.95083 20.119 9.03666L20.0068 9.22772L20.0729 9.4392C20.5617 11.0016 20.5888 12.6719 20.1512 14.2493C19.7135 15.8268 18.8296 17.2443 17.6057 18.3316C16.3819 19.4188 14.8701 20.1295 13.252 20.3782C11.634 20.6269 9.9785 20.4031 8.48459 19.7336L8.27292 19.6388L8.0638 19.7391C7.06788 20.2171 5.98712 20.4929 4.88398 20.5506ZM3.88476 19.2102L3.88562 19.2112C4.14961 19.5096 4.56885 19.5799 4.93012 19.5799C5.32167 19.5799 5.799 19.4975 6.33994 19.34L7.22577 19.082L6.52597 18.4807C5.96318 17.9971 5.46411 17.444 5.04075 16.8346L4.57513 16.1644L4.18948 16.8836C3.98762 17.2601 3.82197 17.6795 3.73645 18.0535C3.69394 18.2393 3.66673 18.4333 3.67343 18.6149C3.67965 18.7834 3.71773 19.0204 3.88476 19.2102ZM15.8357 18.4297L15.837 18.4289C17.5391 17.4095 18.7679 15.7574 19.2545 13.8341C19.448 13.0894 19.5238 12.3191 19.4793 11.551L19.4035 10.2447L18.5889 11.2686C17.4598 12.6876 16.2085 14.0049 14.8492 15.2051L14.8492 15.2051L14.8468 15.2072C13.4973 16.4141 12.0421 17.4972 10.4987 18.4437L9.41828 19.1063L10.6601 19.3598C11.0999 19.4496 11.5475 19.4965 11.9964 19.4999L11.9964 19.5L12.0043 19.4999C13.3536 19.4887 14.6758 19.1194 15.8357 18.4297ZM19.0517 7.34367L19.5646 8.12752L19.9304 7.2652C20.1504 6.74668 20.2908 6.28236 20.3399 5.89389C20.3848 5.53877 20.3705 5.11325 20.1085 4.8131C19.9481 4.62498 19.742 4.48132 19.5099 4.39596C19.2771 4.31033 19.0262 4.2863 18.7814 4.32616C18.3522 4.39298 17.9429 4.55281 17.5819 4.79445L17.0428 5.15539L17.5292 5.58476C18.1132 6.10026 18.6252 6.69185 19.0517 7.34367ZM4.73451 10.1908L4.72012 10.2495V10.2899C4.35462 11.8171 4.47764 13.4212 5.0727 14.8756C5.67561 16.3491 6.73181 17.5926 8.0884 18.426L8.33415 18.5769L8.58786 18.4398C10.6146 17.3444 12.4975 16.0017 14.1936 14.4426C15.9183 12.9404 17.452 11.2321 18.7603 9.35591L18.9211 9.12529L18.8076 8.86807C18.6982 8.62022 18.5713 8.3805 18.4278 8.15074C17.7708 7.03274 16.8316 6.10696 15.7041 5.4662C14.5749 4.82442 13.2967 4.49117 11.9979 4.49993C10.6432 4.50315 9.31469 4.87322 8.15346 5.57082C7.30584 6.07562 6.56707 6.74395 5.98016 7.53693C5.39304 8.33019 4.9696 9.23233 4.73451 10.1908Z" fill="black" stroke="#E07077"/>
</svg>
